<svg width="64" height="64" viewBox="0 0 64 64" fill="none" xmlns="http://www.w3.org/2000/svg">
<path d="M58 28V48H26V28H58ZM47.5 39.4453C47.5 38.5091 47.0571 37.6089 46.2446 36.8818L42 32.5455L38.2554 36.8818C37.4429 37.6089 37 38.5091 37 39.4453C37 41.6634 38.0451 44 41.0481 44H42.5C44.0018 44 45.5817 43.0089 46.5661 42.2818C47.5505 41.5547 47.5 40.5546 47.5 39.4453Z" fill="#34CB79"/>
<path d="M25.8065 22.7097V30.9058C23.1846 30.555 22.8438 28.9033 19.6029 28.9033C15.99 28.9033 15.99 30.9678 12.3771 30.9678C9.18708 30.9678 8.81561 29.3574 6.28638 28.9859C6.44162 26.8594 6.80251 24.7536 7.35997 22.7097H25.8065Z" fill="#34CB79"/>
<path d="M25.8065 52.6451V54.7096H5.6875C5.71875 54.6376 5.7495 54.565 5.78075 54.503L6.52369 53.0272C7.65927 50.7354 8.25806 48.2167 8.25806 45.6567C8.25806 44.1804 8.05141 42.7147 7.66986 41.2903H7.65927C7.65927 41.2389 7.63861 41.187 7.62853 41.1356L7.48387 40.6401C6.937 38.7197 6.55494 36.7585 6.24496 33.1043H6.25554C8.81552 33.4763 9.17692 35.0967 12.377 35.0967C15.9899 35.0967 15.9899 33.0322 19.6028 33.0322C22.8438 33.0322 23.1845 34.6839 25.8065 35.0347V52.6451Z" fill="#34CB79"/>
<mask id="path-4-inside-1_101_254" fill="white">
<path d="M56.981 16.9289L51.613 12.9032V8.25806H53.6775V3.09677C53.6775 1.38962 52.2879 0 50.5808 0H34.0646C32.3575 0 30.9679 1.38962 30.9679 3.09677V8.25806H33.0324V12.9032L27.6644 16.9289C27.429 17.1053 27.2073 17.2964 26.9976 17.499C26.294 15.9007 25.4679 14.3558 24.5329 12.8856L22.7098 10.0222V8.25806H24.7743V3.09677C24.7743 1.38962 23.3847 0 21.6775 0H13.4195C11.7123 0 10.3227 1.38962 10.3227 3.09677V8.25806H12.3872V10.0222L10.5611 12.8906C7.02885 18.4425 5.16141 24.8558 5.16141 31.4355C5.16141 34.6457 5.60848 37.8382 6.49105 40.9259L6.63217 41.4204C7.02683 42.8004 7.22592 44.2273 7.22592 45.6608C7.22592 48.0444 6.66242 50.4309 5.59588 52.5635L4.85496 54.0469C4.38016 54.9955 4.12915 56.06 4.12915 57.122C4.12915 60.9148 7.21433 64 11.0072 64H11.9598C13.178 64 14.3217 63.5262 15.1826 62.6653C15.6523 62.1946 16.2778 61.9355 16.9437 61.9355H18.1533C18.8192 61.9355 19.4447 62.1946 19.9154 62.6653C20.7753 63.5262 21.919 64 23.1372 64H24.0898C25.4895 64 26.8328 63.5539 27.9724 62.7697C29.1241 63.5459 30.5097 64 32.0001 64H52.6453C56.6297 64 59.8711 60.7576 59.8711 56.7742V22.7097C59.8711 20.4471 58.7904 18.2863 56.981 16.9289ZM57.8066 24.7742V55.7419H26.8388V53.6774V51.6129V22.7097C26.8388 21.9914 26.9986 21.2903 27.2819 20.6452H57.3625C57.6468 21.2903 57.8066 21.9914 57.8066 22.7097V24.7742ZM7.22592 31.4355C7.22592 31.0625 7.25264 30.692 7.26524 30.3206C7.61 30.4662 7.9225 30.6426 8.25617 30.8327C9.21484 31.3795 10.301 31.999 12.3802 31.999C14.4598 31.999 15.546 31.3785 16.5047 30.8306C17.3464 30.3503 18.0727 29.9355 19.605 29.9355C21.1387 29.9355 21.8655 30.3503 22.7078 30.8327C23.2773 31.1578 23.9094 31.5146 24.7733 31.748V33.7011C24.4079 33.5514 24.0808 33.3679 23.7305 33.1683C22.7738 32.6205 21.6866 32 19.605 32C17.5248 32 16.4386 32.6205 15.48 33.1683C14.6387 33.6497 13.9129 34.0645 12.3802 34.0645C10.8479 34.0645 10.1216 33.6507 9.27784 33.1694C8.71736 32.8498 8.09588 32.5005 7.25465 32.2671C7.2476 31.9899 7.22592 31.7132 7.22592 31.4355ZM33.0324 3.09677C33.0324 2.52823 33.4961 2.06452 34.0646 2.06452H50.5808C51.1493 2.06452 51.613 2.52823 51.613 3.09677V6.19355H33.0324V3.09677ZM49.5485 8.25806V12.3871H35.0969V8.25806H49.5485ZM34.4084 14.4516H50.236L55.741 18.5806H28.9033L34.4084 14.4516ZM12.3872 3.09677C12.3872 2.52823 12.8509 2.06452 13.4195 2.06452H21.6775C22.2461 2.06452 22.7098 2.52823 22.7098 3.09677V6.19355H12.3872V3.09677ZM12.3035 13.9995L14.4517 10.623V8.25806H20.6453V10.624L22.7914 13.9955C23.8847 15.7132 24.8116 17.5444 25.5641 19.4395C25.054 20.443 24.7743 21.563 24.7743 22.7097V29.5721C24.4089 29.4224 24.0818 29.2389 23.732 29.0393C22.7738 28.4914 21.6866 27.871 19.605 27.871C17.5248 27.871 16.4386 28.4914 15.48 29.0393C14.6387 29.5207 13.9129 29.9355 12.3802 29.9355C10.8489 29.9355 10.1216 29.5207 9.28036 29.0393C8.75465 28.7399 8.1725 28.4138 7.40838 28.1825C7.91342 23.1492 9.56715 18.2989 12.3035 13.9995ZM23.1372 61.9355C22.4714 61.9355 21.8459 61.6764 21.3751 61.2056C20.5152 60.3448 19.3716 59.871 18.1533 59.871H16.9437C15.7254 59.871 14.5818 60.3448 13.7209 61.2056C13.2511 61.6764 12.6256 61.9355 11.9598 61.9355H11.0072C8.35294 61.9355 6.19367 59.7762 6.19367 57.122C6.19367 56.379 6.36907 55.6346 6.70173 54.9698L7.44266 53.4864C8.65133 51.0701 9.29044 48.3644 9.29044 45.6608C9.29044 44.5388 9.17502 43.4219 8.96131 42.3226L8.45022 40.2581C7.91846 38.376 7.57371 36.4511 7.39024 34.5096C7.68611 34.6436 7.96383 34.7964 8.25617 34.9627C9.21484 35.5086 10.301 36.129 12.3802 36.129C14.4598 36.129 15.546 35.5076 16.5047 34.9607C17.3464 34.4793 18.0727 34.0645 19.605 34.0645C21.1387 34.0645 21.8655 34.4793 22.7078 34.9607C23.2773 35.2868 23.9094 35.6436 24.7733 35.877V56.7742C24.7733 58.5 25.3832 60.0857 26.3968 61.3296C25.6952 61.7167 24.9064 61.9355 24.0898 61.9355H23.1372ZM52.6453 61.9355H32.0001C29.5082 61.9355 27.423 60.1588 26.9432 57.8064H57.7022C57.2224 60.1588 55.1372 61.9355 52.6453 61.9355Z"/>
</mask>
<path d="M56.981 16.9289L51.613 12.9032V8.25806H53.6775V3.09677C53.6775 1.38962 52.2879 0 50.5808 0H34.0646C32.3575 0 30.9679 1.38962 30.9679 3.09677V8.25806H33.0324V12.9032L27.6644 16.9289C27.429 17.1053 27.2073 17.2964 26.9976 17.499C26.294 15.9007 25.4679 14.3558 24.5329 12.8856L22.7098 10.0222V8.25806H24.7743V3.09677C24.7743 1.38962 23.3847 0 21.6775 0H13.4195C11.7123 0 10.3227 1.38962 10.3227 3.09677V8.25806H12.3872V10.0222L10.5611 12.8906C7.02885 18.4425 5.16141 24.8558 5.16141 31.4355C5.16141 34.6457 5.60848 37.8382 6.49105 40.9259L6.63217 41.4204C7.02683 42.8004 7.22592 44.2273 7.22592 45.6608C7.22592 48.0444 6.66242 50.4309 5.59588 52.5635L4.85496 54.0469C4.38016 54.9955 4.12915 56.06 4.12915 57.122C4.12915 60.9148 7.21433 64 11.0072 64H11.9598C13.178 64 14.3217 63.5262 15.1826 62.6653C15.6523 62.1946 16.2778 61.9355 16.9437 61.9355H18.1533C18.8192 61.9355 19.4447 62.1946 19.9154 62.6653C20.7753 63.5262 21.919 64 23.1372 64H24.0898C25.4895 64 26.8328 63.5539 27.9724 62.7697C29.1241 63.5459 30.5097 64 32.0001 64H52.6453C56.6297 64 59.8711 60.7576 59.8711 56.7742V22.7097C59.8711 20.4471 58.7904 18.2863 56.981 16.9289ZM57.8066 24.7742V55.7419H26.8388V53.6774V51.6129V22.7097C26.8388 21.9914 26.9986 21.2903 27.2819 20.6452H57.3625C57.6468 21.2903 57.8066 21.9914 57.8066 22.7097V24.7742ZM7.22592 31.4355C7.22592 31.0625 7.25264 30.692 7.26524 30.3206C7.61 30.4662 7.9225 30.6426 8.25617 30.8327C9.21484 31.3795 10.301 31.999 12.3802 31.999C14.4598 31.999 15.546 31.3785 16.5047 30.8306C17.3464 30.3503 18.0727 29.9355 19.605 29.9355C21.1387 29.9355 21.8655 30.3503 22.7078 30.8327C23.2773 31.1578 23.9094 31.5146 24.7733 31.748V33.7011C24.4079 33.5514 24.0808 33.3679 23.7305 33.1683C22.7738 32.6205 21.6866 32 19.605 32C17.5248 32 16.4386 32.6205 15.48 33.1683C14.6387 33.6497 13.9129 34.0645 12.3802 34.0645C10.8479 34.0645 10.1216 33.6507 9.27784 33.1694C8.71736 32.8498 8.09588 32.5005 7.25465 32.2671C7.2476 31.9899 7.22592 31.7132 7.22592 31.4355ZM33.0324 3.09677C33.0324 2.52823 33.4961 2.06452 34.0646 2.06452H50.5808C51.1493 2.06452 51.613 2.52823 51.613 3.09677V6.19355H33.0324V3.09677ZM49.5485 8.25806V12.3871H35.0969V8.25806H49.5485ZM34.4084 14.4516H50.236L55.741 18.5806H28.9033L34.4084 14.4516ZM12.3872 3.09677C12.3872 2.52823 12.8509 2.06452 13.4195 2.06452H21.6775C22.2461 2.06452 22.7098 2.52823 22.7098 3.09677V6.19355H12.3872V3.09677ZM12.3035 13.9995L14.4517 10.623V8.25806H20.6453V10.624L22.7914 13.9955C23.8847 15.7132 24.8116 17.5444 25.5641 19.4395C25.054 20.443 24.7743 21.563 24.7743 22.7097V29.5721C24.4089 29.4224 24.0818 29.2389 23.732 29.0393C22.7738 28.4914 21.6866 27.871 19.605 27.871C17.5248 27.871 16.4386 28.4914 15.48 29.0393C14.6387 29.5207 13.9129 29.9355 12.3802 29.9355C10.8489 29.9355 10.1216 29.5207 9.28036 29.0393C8.75465 28.7399 8.1725 28.4138 7.40838 28.1825C7.91342 23.1492 9.56715 18.2989 12.3035 13.9995ZM23.1372 61.9355C22.4714 61.9355 21.8459 61.6764 21.3751 61.2056C20.5152 60.3448 19.3716 59.871 18.1533 59.871H16.9437C15.7254 59.871 14.5818 60.3448 13.7209 61.2056C13.2511 61.6764 12.6256 61.9355 11.9598 61.9355H11.0072C8.35294 61.9355 6.19367 59.7762 6.19367 57.122C6.19367 56.379 6.36907 55.6346 6.70173 54.9698L7.44266 53.4864C8.65133 51.0701 9.29044 48.3644 9.29044 45.6608C9.29044 44.5388 9.17502 43.4219 8.96131 42.3226L8.45022 40.2581C7.91846 38.376 7.57371 36.4511 7.39024 34.5096C7.68611 34.6436 7.96383 34.7964 8.25617 34.9627C9.21484 35.5086 10.301 36.129 12.3802 36.129C14.4598 36.129 15.546 35.5076 16.5047 34.9607C17.3464 34.4793 18.0727 34.0645 19.605 34.0645C21.1387 34.0645 21.8655 34.4793 22.7078 34.9607C23.2773 35.2868 23.9094 35.6436 24.7733 35.877V56.7742C24.7733 58.5 25.3832 60.0857 26.3968 61.3296C25.6952 61.7167 24.9064 61.9355 24.0898 61.9355H23.1372ZM52.6453 61.9355H32.0001C29.5082 61.9355 27.423 60.1588 26.9432 57.8064H57.7022C57.2224 60.1588 55.1372 61.9355 52.6453 61.9355Z" fill="#322153" stroke="#322153" stroke-width="2" mask="url(#path-4-inside-1_101_254)"/>
<path d="M42.7069 33.2925L42.3228 32.8314L41.9386 33.2924L38.6244 37.2693C38.6243 37.2694 38.6242 37.2695 38.6242 37.2696C38.6241 37.2696 38.6241 37.2697 38.6241 37.2697C38.0231 37.9896 37.6937 38.9029 37.6937 39.8403C37.6937 42.0552 39.4948 43.8549 41.7093 43.8549H42.9371C45.1507 43.8549 46.9517 42.0551 46.9517 39.8403C46.9517 38.9028 46.6222 37.9893 46.02 37.2693C46.0199 37.2692 46.0198 37.2691 46.0197 37.269L42.7069 33.2925ZM42.9361 44.9194H41.7083C38.9083 44.9194 36.6292 42.6403 36.6292 39.8403C36.6292 38.6544 37.0473 37.499 37.8056 36.5884C37.8056 36.5883 37.8057 36.5883 37.8057 36.5882L42.3227 31.1687L46.8386 36.587C46.8386 36.5871 46.8386 36.5871 46.8387 36.5872C47.5982 37.5001 48.0162 38.6545 48.0162 39.8403C48.0162 42.6402 45.7371 44.9194 42.9361 44.9194Z" fill="#322153" stroke="#322153"/>
</svg>
