<svg width="64" height="64" viewBox="0 0 64 64" fill="none" xmlns="http://www.w3.org/2000/svg">
<path d="M10.9998 44V27H21.9998C21.737 27.1641 21.4627 27.3041 21.1883 27.4333C19.1244 28.4166 17.7047 30.3718 17.2515 32.5727L15.7719 39.8788L15.7835 40.0897C13.6841 40.6048 11.9184 42.0329 11.0114 44H10.9998Z" fill="#34CB79"/>
<path d="M43.9088 2.5625L48.5149 2L55.9998 16.0625V18.3125L54.2725 20H38.1513L36.9998 17.75L37.5755 13.8125L43.9088 2.5625Z" fill="#34CB79"/>
<mask id="path-3-inside-1_101_293" fill="white">
<path fill-rule="evenodd" clip-rule="evenodd" d="M52.6665 49.4727C57.0982 49.4727 60.7036 53.0125 60.7036 57.3636V60.7455V63H3.2963L3.29614 60.7455V57.3636C3.29614 54.1981 5.20898 51.4691 7.95545 50.2119L9.90809 43.8226C9.96284 43.6461 10.0343 43.4798 10.1059 43.3131C10.1325 43.2511 10.1592 43.189 10.185 43.1263V25.205C10.185 23.0561 11.401 21.1241 13.3587 20.1636L14.7776 19.4668V16.7818H12.4813V13.4C12.4813 11.5357 14.027 10.0182 15.9258 10.0182H22.8147C24.7135 10.0182 26.2591 11.5357 26.2591 13.4V16.7818H23.9628V19.4668L25.3829 20.1636C26.4497 20.6865 27.2946 21.5254 27.8529 22.5442C28.2616 22.471 28.6815 22.4182 29.1272 22.4182C30.2154 22.4182 31.1847 22.6626 32.071 23.1624C32.7556 22.8453 33.8633 22.4182 34.8725 22.4182C37.3845 22.4182 39.2945 23.7226 40.9808 24.8742L40.9832 24.8758C41.6004 25.2975 42.1964 25.6806 42.8007 26.0185L45.7776 24.0695V21.2909H41.4558C38.7738 21.2909 36.5924 19.1492 36.5924 16.516C36.5924 15.7784 36.7702 15.0403 37.1054 14.3809L42.5754 3.63984C43.4045 2.01113 45.0712 1 46.9258 1C48.7803 1 50.447 2.01113 51.2762 3.63874L56.7461 14.3798C57.0814 15.0403 57.2591 15.7784 57.2591 16.516C57.2591 19.1492 55.0777 21.2909 52.3957 21.2909H48.0739V24.0695L54.451 28.245L53.1772 30.1208L48.0739 26.7798V29.7058L54.451 33.8814L53.1772 35.7572L48.0739 32.4161V35.3422L54.451 39.5177L53.1772 41.3936L48.0739 38.0525V40.9785L54.451 45.153L53.1772 47.0288L48.0739 43.6877V47.3084C49.7995 47.5517 51.3496 48.3295 52.5404 49.4727H52.6665ZM39.1595 15.3887C38.9829 15.7371 38.8887 16.1268 38.8887 16.516C38.8887 17.9058 40.0402 19.0364 41.4558 19.0364H52.3957C53.8113 19.0364 54.9628 17.9058 54.9628 16.516C54.9628 16.1268 54.8697 15.7371 54.692 15.3887L49.2221 4.64767C48.9681 4.14954 48.5572 3.77965 48.0739 3.54077H45.7776C45.2944 3.77965 44.8834 4.14954 44.6295 4.64767L39.1595 15.3887ZM52.6665 56.1224V55.1091C52.6665 52.3867 50.6903 50.1096 48.0739 49.5867V50.6C48.0739 53.3213 50.0501 55.5995 52.6665 56.1224ZM41.185 56.1224C43.8014 55.5995 45.7776 53.3224 45.7776 50.6V49.5867C43.1612 50.1096 41.185 52.3867 41.185 55.1091V56.1224ZM15.9258 12.2727C15.2934 12.2727 14.7776 12.7791 14.7776 13.4V14.5273H23.9628V13.4C23.9628 12.7791 23.447 12.2727 22.8147 12.2727H15.9258ZM17.0739 20.8605L14.3852 22.1804C13.2101 22.7561 12.4813 23.9153 12.4813 25.205V40.0252C13.1944 39.4434 14.0006 38.9799 14.8841 38.6701L16.2279 32.0754C16.7432 29.5495 18.3897 27.4028 20.6333 26.3356C21.4406 25.9508 22.2064 25.4279 23.0165 24.8747C23.8227 24.3243 24.6826 23.7414 25.6323 23.2807C25.3061 22.8205 24.8766 22.4363 24.3552 22.1804L21.6665 20.8605V16.7818H17.0739V20.8605ZM11.3332 51.7273C8.16792 51.7273 5.59244 54.2559 5.59244 57.3636V60.7455H58.4073V57.3636C58.4073 54.8185 56.6688 52.6878 54.3046 51.9898C54.7262 52.947 54.9628 54.0011 54.9628 55.1091V58.4909H53.8147C50.8894 58.4909 48.3324 56.9431 46.9258 54.6434C45.5192 56.9431 42.9622 58.4909 40.0369 58.4909H38.8887V55.1091C38.8887 51.1422 41.8886 47.8583 45.7776 47.3084V43.6877L40.6732 47.0277L39.3995 45.1519L45.7776 40.9774V38.0514L40.6732 41.3914L39.3995 39.5155L45.7776 35.3411V32.415L40.6732 35.755L39.3995 33.8792L45.7776 29.7047V26.7787L40.6732 30.1197L39.3995 28.2439L40.6889 27.4006C40.3447 27.1777 40.0027 26.952 39.6719 26.7253C38.1263 25.669 36.6659 24.6727 34.8725 24.6727C34.193 24.6727 33.102 25.145 32.5739 25.4417L31.9197 25.811L31.3131 25.3685C30.6577 24.8868 29.9839 24.6727 29.1272 24.6727C27.3338 24.6727 25.8734 25.669 24.3278 26.7242C23.4807 27.3038 22.6033 27.9026 21.6346 28.3633C20.6335 28.8398 19.8004 29.6249 19.2225 30.5955L19.222 30.5954L19.2212 30.5976C19.2154 30.6075 19.2095 30.6173 19.2037 30.6272C19.2058 30.6279 19.2078 30.6286 19.2098 30.6292L18.4457 32.752C18.4408 32.7505 18.436 32.749 18.4312 32.7475L17.3161 38.2226C17.361 38.2211 17.4047 38.2163 17.4483 38.2115C17.5006 38.2057 17.5527 38.2 17.6065 38.2H29.7035V40.4545H17.6065C15.0518 40.4545 12.8418 42.0689 12.108 44.471L10.5685 49.5113C10.8213 49.4876 11.0747 49.4727 11.3332 49.4727H22.8147V51.7273H11.3332Z"/>
</mask>
<path fill-rule="evenodd" clip-rule="evenodd" d="M52.6665 49.4727C57.0982 49.4727 60.7036 53.0125 60.7036 57.3636V60.7455V63H3.2963L3.29614 60.7455V57.3636C3.29614 54.1981 5.20898 51.4691 7.95545 50.2119L9.90809 43.8226C9.96284 43.6461 10.0343 43.4798 10.1059 43.3131C10.1325 43.2511 10.1592 43.189 10.185 43.1263V25.205C10.185 23.0561 11.401 21.1241 13.3587 20.1636L14.7776 19.4668V16.7818H12.4813V13.4C12.4813 11.5357 14.027 10.0182 15.9258 10.0182H22.8147C24.7135 10.0182 26.2591 11.5357 26.2591 13.4V16.7818H23.9628V19.4668L25.3829 20.1636C26.4497 20.6865 27.2946 21.5254 27.8529 22.5442C28.2616 22.471 28.6815 22.4182 29.1272 22.4182C30.2154 22.4182 31.1847 22.6626 32.071 23.1624C32.7556 22.8453 33.8633 22.4182 34.8725 22.4182C37.3845 22.4182 39.2945 23.7226 40.9808 24.8742L40.9832 24.8758C41.6004 25.2975 42.1964 25.6806 42.8007 26.0185L45.7776 24.0695V21.2909H41.4558C38.7738 21.2909 36.5924 19.1492 36.5924 16.516C36.5924 15.7784 36.7702 15.0403 37.1054 14.3809L42.5754 3.63984C43.4045 2.01113 45.0712 1 46.9258 1C48.7803 1 50.447 2.01113 51.2762 3.63874L56.7461 14.3798C57.0814 15.0403 57.2591 15.7784 57.2591 16.516C57.2591 19.1492 55.0777 21.2909 52.3957 21.2909H48.0739V24.0695L54.451 28.245L53.1772 30.1208L48.0739 26.7798V29.7058L54.451 33.8814L53.1772 35.7572L48.0739 32.4161V35.3422L54.451 39.5177L53.1772 41.3936L48.0739 38.0525V40.9785L54.451 45.153L53.1772 47.0288L48.0739 43.6877V47.3084C49.7995 47.5517 51.3496 48.3295 52.5404 49.4727H52.6665ZM39.1595 15.3887C38.9829 15.7371 38.8887 16.1268 38.8887 16.516C38.8887 17.9058 40.0402 19.0364 41.4558 19.0364H52.3957C53.8113 19.0364 54.9628 17.9058 54.9628 16.516C54.9628 16.1268 54.8697 15.7371 54.692 15.3887L49.2221 4.64767C48.9681 4.14954 48.5572 3.77965 48.0739 3.54077H45.7776C45.2944 3.77965 44.8834 4.14954 44.6295 4.64767L39.1595 15.3887ZM52.6665 56.1224V55.1091C52.6665 52.3867 50.6903 50.1096 48.0739 49.5867V50.6C48.0739 53.3213 50.0501 55.5995 52.6665 56.1224ZM41.185 56.1224C43.8014 55.5995 45.7776 53.3224 45.7776 50.6V49.5867C43.1612 50.1096 41.185 52.3867 41.185 55.1091V56.1224ZM15.9258 12.2727C15.2934 12.2727 14.7776 12.7791 14.7776 13.4V14.5273H23.9628V13.4C23.9628 12.7791 23.447 12.2727 22.8147 12.2727H15.9258ZM17.0739 20.8605L14.3852 22.1804C13.2101 22.7561 12.4813 23.9153 12.4813 25.205V40.0252C13.1944 39.4434 14.0006 38.9799 14.8841 38.6701L16.2279 32.0754C16.7432 29.5495 18.3897 27.4028 20.6333 26.3356C21.4406 25.9508 22.2064 25.4279 23.0165 24.8747C23.8227 24.3243 24.6826 23.7414 25.6323 23.2807C25.3061 22.8205 24.8766 22.4363 24.3552 22.1804L21.6665 20.8605V16.7818H17.0739V20.8605ZM11.3332 51.7273C8.16792 51.7273 5.59244 54.2559 5.59244 57.3636V60.7455H58.4073V57.3636C58.4073 54.8185 56.6688 52.6878 54.3046 51.9898C54.7262 52.947 54.9628 54.0011 54.9628 55.1091V58.4909H53.8147C50.8894 58.4909 48.3324 56.9431 46.9258 54.6434C45.5192 56.9431 42.9622 58.4909 40.0369 58.4909H38.8887V55.1091C38.8887 51.1422 41.8886 47.8583 45.7776 47.3084V43.6877L40.6732 47.0277L39.3995 45.1519L45.7776 40.9774V38.0514L40.6732 41.3914L39.3995 39.5155L45.7776 35.3411V32.415L40.6732 35.755L39.3995 33.8792L45.7776 29.7047V26.7787L40.6732 30.1197L39.3995 28.2439L40.6889 27.4006C40.3447 27.1777 40.0027 26.952 39.6719 26.7253C38.1263 25.669 36.6659 24.6727 34.8725 24.6727C34.193 24.6727 33.102 25.145 32.5739 25.4417L31.9197 25.811L31.3131 25.3685C30.6577 24.8868 29.9839 24.6727 29.1272 24.6727C27.3338 24.6727 25.8734 25.669 24.3278 26.7242C23.4807 27.3038 22.6033 27.9026 21.6346 28.3633C20.6335 28.8398 19.8004 29.6249 19.2225 30.5955L19.222 30.5954L19.2212 30.5976C19.2154 30.6075 19.2095 30.6173 19.2037 30.6272C19.2058 30.6279 19.2078 30.6286 19.2098 30.6292L18.4457 32.752C18.4408 32.7505 18.436 32.749 18.4312 32.7475L17.3161 38.2226C17.361 38.2211 17.4047 38.2163 17.4483 38.2115C17.5006 38.2057 17.5527 38.2 17.6065 38.2H29.7035V40.4545H17.6065C15.0518 40.4545 12.8418 42.0689 12.108 44.471L10.5685 49.5113C10.8213 49.4876 11.0747 49.4727 11.3332 49.4727H22.8147V51.7273H11.3332Z" fill="#322153"/>
<path d="M60.7036 63V64H61.7036V63H60.7036ZM3.2963 63L2.2963 63.0001L2.29636 64H3.2963V63ZM3.29614 60.7455L2.29614 60.7455L2.29614 60.7455L3.29614 60.7455ZM7.95545 50.2119L8.37166 51.1212L8.7804 50.9341L8.91179 50.5042L7.95545 50.2119ZM9.90809 43.8226L8.95297 43.5263L8.95175 43.5303L9.90809 43.8226ZM10.1059 43.3131L11.0247 43.7078L11.0247 43.7078L10.1059 43.3131ZM10.185 43.1263L11.1095 43.5075L11.185 43.3244V43.1263H10.185ZM13.3587 20.1636L13.7992 21.0614L13.7995 21.0612L13.3587 20.1636ZM14.7776 19.4668L15.2184 20.3644L15.7776 20.0898V19.4668H14.7776ZM14.7776 16.7818H15.7776V15.7818H14.7776V16.7818ZM12.4813 16.7818H11.4813V17.7818H12.4813V16.7818ZM26.2591 16.7818V17.7818H27.2591V16.7818H26.2591ZM23.9628 16.7818V15.7818H22.9628V16.7818H23.9628ZM23.9628 19.4668H22.9628V20.09L23.5223 20.3645L23.9628 19.4668ZM25.3829 20.1636L24.9423 21.0614L24.9427 21.0616L25.3829 20.1636ZM27.8529 22.5442L26.976 23.0248L27.3216 23.6553L28.0293 23.5286L27.8529 22.5442ZM32.071 23.1624L31.5799 24.0334L32.0263 24.2851L32.4913 24.0698L32.071 23.1624ZM40.9808 24.8742L41.5452 24.0487L41.5448 24.0484L40.9808 24.8742ZM40.9832 24.8758L40.4189 25.7014L40.4192 25.7016L40.9832 24.8758ZM42.8007 26.0185L42.3127 26.8913L42.8415 27.1871L43.3485 26.8551L42.8007 26.0185ZM45.7776 24.0695L46.3254 24.9061L46.7776 24.61V24.0695H45.7776ZM45.7776 21.2909H46.7776V20.2909H45.7776V21.2909ZM37.1054 14.3809L36.2143 13.9271L36.214 13.9277L37.1054 14.3809ZM42.5754 3.63984L43.4665 4.09365L43.4665 4.09352L42.5754 3.63984ZM51.2762 3.63874L52.1673 3.18494L52.1672 3.18482L51.2762 3.63874ZM56.7461 14.3798L57.6379 13.9272L57.6372 13.926L56.7461 14.3798ZM48.0739 21.2909V20.2909H47.0739V21.2909H48.0739ZM48.0739 24.0695H47.0739V24.61L47.5261 24.9061L48.0739 24.0695ZM54.451 28.245L55.2783 28.8067L55.8495 27.9654L54.9988 27.4084L54.451 28.245ZM53.1772 30.1208L52.6295 30.9575L53.4522 31.4961L54.0045 30.6826L53.1772 30.1208ZM48.0739 26.7798L48.6217 25.9431L47.0739 24.9298V26.7798H48.0739ZM48.0739 29.7058H47.0739V30.2463L47.5261 30.5424L48.0739 29.7058ZM54.451 33.8814L55.2783 34.4431L55.8495 33.6018L54.9988 33.0447L54.451 33.8814ZM53.1772 35.7572L52.6295 36.5939L53.4522 37.1324L54.0045 36.319L53.1772 35.7572ZM48.0739 32.4161L48.6217 31.5795L47.0739 30.5662V32.4161H48.0739ZM48.0739 35.3422H47.0739V35.8827L47.5261 36.1788L48.0739 35.3422ZM54.451 39.5177L55.2783 40.0795L55.8495 39.2382L54.9988 38.6811L54.451 39.5177ZM53.1772 41.3936L52.6295 42.2302L53.4522 42.7688L54.0045 41.9553L53.1772 41.3936ZM48.0739 38.0525L48.6217 37.2158L47.0739 36.2025V38.0525H48.0739ZM48.0739 40.9785H47.0739V41.5191L47.5262 41.8152L48.0739 40.9785ZM54.451 45.153L55.2783 45.7147L55.8496 44.8733L54.9987 44.3163L54.451 45.153ZM53.1772 47.0288L52.6295 47.8655L53.4522 48.4041L54.0045 47.5906L53.1772 47.0288ZM48.0739 43.6877L48.6217 42.8511L47.0739 41.8378V43.6877H48.0739ZM48.0739 47.3084H47.0739V48.1773L47.9343 48.2987L48.0739 47.3084ZM52.5404 49.4727L51.8478 50.1941L52.138 50.4727H52.5404V49.4727ZM39.1595 15.3887L38.2684 14.9349L38.2675 14.9366L39.1595 15.3887ZM54.692 15.3887L53.8009 15.8425L53.8012 15.8431L54.692 15.3887ZM49.2221 4.64767L50.1132 4.19387L50.113 4.19347L49.2221 4.64767ZM48.0739 3.54077L48.5171 2.64431L48.3076 2.54077H48.0739V3.54077ZM45.7776 3.54077V2.54077H45.544L45.3345 2.64431L45.7776 3.54077ZM44.6295 4.64767L43.7386 4.19347L43.7384 4.19387L44.6295 4.64767ZM52.6665 56.1224L52.4705 57.103L53.6665 57.3421V56.1224H52.6665ZM48.0739 49.5867L48.2699 48.6061L47.0739 48.367V49.5867H48.0739ZM41.185 56.1224H40.185V57.3421L41.381 57.103L41.185 56.1224ZM45.7776 49.5867H46.7776V48.367L45.5816 48.6061L45.7776 49.5867ZM14.7776 14.5273H13.7776V15.5273H14.7776V14.5273ZM23.9628 14.5273V15.5273H24.9628V14.5273H23.9628ZM14.3852 22.1804L14.8252 23.0784L14.8259 23.0781L14.3852 22.1804ZM17.0739 20.8605L17.5146 21.7581L18.0739 21.4836V20.8605H17.0739ZM12.4813 40.0252H11.4813V42.1317L13.1135 40.8L12.4813 40.0252ZM14.8841 38.6701L15.2151 39.6137L15.7507 39.4259L15.864 38.8697L14.8841 38.6701ZM16.2279 32.0754L15.2481 31.8756L15.2481 31.8757L16.2279 32.0754ZM20.6333 26.3356L21.0629 27.2386L21.0635 27.2383L20.6333 26.3356ZM23.0165 24.8747L22.4526 24.0489L22.4526 24.0489L23.0165 24.8747ZM25.6323 23.2807L26.0688 24.1804L27.1308 23.6652L26.4481 22.7023L25.6323 23.2807ZM24.3552 22.1804L24.7959 21.2827L24.7959 21.2827L24.3552 22.1804ZM21.6665 20.8605H20.6665V21.4836L21.2258 21.7581L21.6665 20.8605ZM21.6665 16.7818H22.6665V15.7818H21.6665V16.7818ZM17.0739 16.7818V15.7818H16.0739V16.7818H17.0739ZM5.59244 60.7455H4.59244V61.7455H5.59244V60.7455ZM58.4073 60.7455V61.7455H59.4073V60.7455H58.4073ZM54.3046 51.9898L54.5878 51.0307L52.5208 50.4205L53.3895 52.3929L54.3046 51.9898ZM54.9628 58.4909V59.4909H55.9628V58.4909H54.9628ZM46.9258 54.6434L47.7789 54.1216L46.9258 52.7269L46.0727 54.1216L46.9258 54.6434ZM38.8887 58.4909H37.8887V59.4909H38.8887V58.4909ZM45.7776 47.3084L45.9176 48.2986L46.7776 48.177V47.3084H45.7776ZM45.7776 43.6877H46.7776V41.8384L45.2301 42.851L45.7776 43.6877ZM40.6732 47.0277L39.8459 47.5895L40.3981 48.4028L41.2207 47.8645L40.6732 47.0277ZM39.3995 45.1519L38.8518 44.3152L38.0008 44.8722L38.5722 45.7136L39.3995 45.1519ZM45.7776 40.9774L46.3253 41.8142L46.7776 41.5181V40.9774H45.7776ZM45.7776 38.0514H46.7776V36.202L45.2301 37.2146L45.7776 38.0514ZM40.6732 41.3914L39.8459 41.9531L40.3981 42.7664L41.2207 42.2282L40.6732 41.3914ZM39.3995 39.5155L38.8518 38.6788L38.0008 39.2358L38.5722 40.0773L39.3995 39.5155ZM45.7776 35.3411L46.3253 36.1778L46.7776 35.8817V35.3411H45.7776ZM45.7776 32.415H46.7776V30.5656L45.2301 31.5782L45.7776 32.415ZM40.6732 35.755L39.8459 36.3168L40.3981 37.13L41.2207 36.5918L40.6732 35.755ZM39.3995 33.8792L38.8518 33.0424L38.0008 33.5994L38.5722 34.4409L39.3995 33.8792ZM45.7776 29.7047L46.3253 30.5414L46.7776 30.2454V29.7047H45.7776ZM45.7776 26.7787H46.7776V24.9289L45.23 25.942L45.7776 26.7787ZM40.6732 30.1197L39.8459 30.6815L40.3982 31.4949L41.2208 30.9564L40.6732 30.1197ZM39.3995 28.2439L38.8521 27.407L38.0006 27.9639L38.5722 28.8056L39.3995 28.2439ZM40.6889 27.4006L41.2362 28.2376L42.5222 27.3965L41.2325 26.5613L40.6889 27.4006ZM39.6719 26.7253L40.2374 25.9005L40.2361 25.8996L39.6719 26.7253ZM32.5739 25.4417L32.0841 24.5698L32.0823 24.5708L32.5739 25.4417ZM31.9197 25.811L31.3303 26.6189L31.8505 26.9984L32.4113 26.6818L31.9197 25.811ZM31.3131 25.3685L30.7209 26.1743L30.7237 26.1763L31.3131 25.3685ZM24.3278 26.7242L23.764 25.8983L23.7631 25.8989L24.3278 26.7242ZM21.6346 28.3633L21.2051 27.4603L21.2048 27.4604L21.6346 28.3633ZM19.2225 30.5955L18.8691 31.531L19.653 31.8271L20.0817 31.1071L19.2225 30.5955ZM19.222 30.5954L19.5754 29.6599L18.6252 29.3009L18.2811 30.2567L19.222 30.5954ZM19.2212 30.5976L20.0807 31.1088L20.1297 31.0265L20.1621 30.9363L19.2212 30.5976ZM19.2037 30.6272L18.3414 30.1208L17.7111 31.1941L18.8949 31.5784L19.2037 30.6272ZM19.2098 30.6292L20.1507 30.9679L20.4999 29.998L19.5198 29.6785L19.2098 30.6292ZM18.4457 32.752L18.1469 33.7063L19.0618 33.9928L19.3866 33.0907L18.4457 32.752ZM18.4312 32.7475L18.7261 31.792L17.6715 31.4665L17.4513 32.5479L18.4312 32.7475ZM17.3161 38.2226L16.3362 38.023L16.0834 39.2644L17.3496 39.222L17.3161 38.2226ZM17.4483 38.2115L17.3391 37.2175L17.339 37.2175L17.4483 38.2115ZM29.7035 38.2H30.7035V37.2H29.7035V38.2ZM29.7035 40.4545V41.4545H30.7035V40.4545H29.7035ZM12.108 44.471L11.1516 44.1788L11.1516 44.1789L12.108 44.471ZM10.5685 49.5113L9.61211 49.2191L9.17631 50.646L10.6617 50.5069L10.5685 49.5113ZM22.8147 49.4727H23.8147V48.4727H22.8147V49.4727ZM22.8147 51.7273V52.7273H23.8147V51.7273H22.8147ZM61.7036 57.3636C61.7036 52.443 57.6331 48.4727 52.6665 48.4727V50.4727C56.5633 50.4727 59.7036 53.582 59.7036 57.3636H61.7036ZM61.7036 60.7455V57.3636H59.7036V60.7455H61.7036ZM61.7036 63V60.7455H59.7036V63H61.7036ZM3.2963 64H60.7036V62H3.2963V64ZM2.29614 60.7455L2.2963 63.0001L4.2963 62.9999L4.29614 60.7454L2.29614 60.7455ZM2.29614 57.3636V60.7455H4.29614V57.3636H2.29614ZM7.53924 49.3027C4.46069 50.7119 2.29614 53.7816 2.29614 57.3636H4.29614C4.29614 54.6146 5.95726 52.2264 8.37166 51.1212L7.53924 49.3027ZM8.95175 43.5303L6.99911 49.9197L8.91179 50.5042L10.8644 44.1149L8.95175 43.5303ZM9.18707 42.9184C9.11862 43.0777 9.02581 43.2915 8.95298 43.5263L10.8632 44.1189C10.8999 44.0006 10.9499 43.8819 11.0247 43.7078L9.18707 42.9184ZM9.26051 42.7452C9.23794 42.7999 9.21418 42.8553 9.18706 42.9184L11.0247 43.7078C11.0509 43.6469 11.0804 43.5781 11.1095 43.5075L9.26051 42.7452ZM9.18503 25.205V43.1263H11.185V25.205H9.18503ZM12.9182 19.2659C10.6244 20.3913 9.18503 22.6676 9.18503 25.205H11.185C11.185 23.4446 12.1776 21.857 13.7992 21.0614L12.9182 19.2659ZM14.3368 18.5692L12.9179 19.266L13.7995 21.0612L15.2184 20.3644L14.3368 18.5692ZM13.7776 16.7818V19.4668H15.7776V16.7818H13.7776ZM12.4813 17.7818H14.7776V15.7818H12.4813V17.7818ZM11.4813 13.4V16.7818H13.4813V13.4H11.4813ZM15.9258 9.01818C13.492 9.01818 11.4813 10.9662 11.4813 13.4H13.4813C13.4813 12.1052 14.5619 11.0182 15.9258 11.0182V9.01818ZM22.8147 9.01818H15.9258V11.0182H22.8147V9.01818ZM27.2591 13.4C27.2591 10.9662 25.2484 9.01818 22.8147 9.01818V11.0182C24.1786 11.0182 25.2591 12.1052 25.2591 13.4H27.2591ZM27.2591 16.7818V13.4H25.2591V16.7818H27.2591ZM23.9628 17.7818H26.2591V15.7818H23.9628V17.7818ZM24.9628 19.4668V16.7818H22.9628V19.4668H24.9628ZM25.8234 19.2659L24.4033 18.5691L23.5223 20.3645L24.9423 21.0614L25.8234 19.2659ZM28.7299 22.0636C28.078 20.8741 27.0851 19.8843 25.823 19.2657L24.9427 21.0616C25.8143 21.4888 26.5112 22.1766 26.976 23.0248L28.7299 22.0636ZM29.1272 21.4182C28.6023 21.4182 28.1196 21.4805 27.6766 21.5599L28.0293 23.5286C28.4036 23.4615 28.7608 23.4182 29.1272 23.4182V21.4182ZM32.5622 22.2913C31.515 21.7008 30.3745 21.4182 29.1272 21.4182V23.4182C30.0563 23.4182 30.8544 23.6243 31.5799 24.0334L32.5622 22.2913ZM34.8725 21.4182C33.634 21.4182 32.3596 21.9266 31.6508 22.255L32.4913 24.0698C33.1515 23.764 34.0927 23.4182 34.8725 23.4182V21.4182ZM41.5448 24.0484C39.8878 22.9168 37.7355 21.4182 34.8725 21.4182V23.4182C37.0336 23.4182 38.7012 24.5283 40.4169 25.7L41.5448 24.0484ZM41.5475 24.0503L41.5452 24.0487L40.4165 25.6998L40.4189 25.7014L41.5475 24.0503ZM43.2888 25.1457C42.7201 24.8277 42.151 24.4625 41.5473 24.0501L40.4192 25.7016C41.0499 26.1324 41.6727 26.5334 42.3127 26.8913L43.2888 25.1457ZM45.2299 23.2328L42.253 25.1819L43.3485 26.8551L46.3254 24.9061L45.2299 23.2328ZM44.7776 21.2909V24.0695H46.7776V21.2909H44.7776ZM41.4558 22.2909H45.7776V20.2909H41.4558V22.2909ZM35.5924 16.516C35.5924 19.7187 38.2389 22.2909 41.4558 22.2909V20.2909C39.3087 20.2909 37.5924 18.5797 37.5924 16.516H35.5924ZM36.214 13.9277C35.8078 14.7266 35.5924 15.6199 35.5924 16.516H37.5924C37.5924 15.9369 37.7325 15.354 37.9968 14.8341L36.214 13.9277ZM41.6843 3.18604L36.2143 13.9271L37.9965 14.8347L43.4665 4.09365L41.6843 3.18604ZM46.9258 0C44.7023 0 42.6873 1.21588 41.6842 3.18616L43.4665 4.09352C44.1218 2.80639 45.4402 2 46.9258 2V0ZM52.1672 3.18482C51.1641 1.21577 49.1492 0 46.9258 0V2C48.4114 2 49.7299 2.80649 50.3851 4.09267L52.1672 3.18482ZM57.6372 13.926L52.1673 3.18494L50.3851 4.09255L55.855 14.8336L57.6372 13.926ZM58.2591 16.516C58.2591 15.6198 58.0437 14.7267 57.6379 13.9272L55.8544 14.8324C56.1191 15.3538 56.2591 15.937 56.2591 16.516H58.2591ZM52.3957 22.2909C55.6126 22.2909 58.2591 19.7187 58.2591 16.516H56.2591C56.2591 18.5797 54.5428 20.2909 52.3957 20.2909V22.2909ZM48.0739 22.2909H52.3957V20.2909H48.0739V22.2909ZM49.0739 24.0695V21.2909H47.0739V24.0695H49.0739ZM54.9988 27.4084L48.6217 23.2328L47.5261 24.9061L53.9032 29.0816L54.9988 27.4084ZM54.0045 30.6826L55.2783 28.8067L53.6237 27.6832L52.3499 29.5591L54.0045 30.6826ZM47.5262 27.6164L52.6295 30.9575L53.725 29.2842L48.6217 25.9431L47.5262 27.6164ZM49.0739 29.7058V26.7798H47.0739V29.7058H49.0739ZM54.9988 33.0447L48.6217 28.8692L47.5261 30.5424L53.9032 34.718L54.9988 33.0447ZM54.0045 36.319L55.2783 34.4431L53.6237 33.3196L52.3499 35.1955L54.0045 36.319ZM47.5262 33.2528L52.6295 36.5939L53.725 34.9206L48.6217 31.5795L47.5262 33.2528ZM49.0739 35.3422V32.4161H47.0739V35.3422H49.0739ZM54.9988 38.6811L48.6217 34.5056L47.5261 36.1788L53.9032 40.3543L54.9988 38.6811ZM54.0045 41.9553L55.2783 40.0795L53.6237 38.956L52.3499 40.8318L54.0045 41.9553ZM47.5262 38.8891L52.6295 42.2302L53.725 40.5569L48.6217 37.2158L47.5262 38.8891ZM49.0739 40.9785V38.0525H47.0739V40.9785H49.0739ZM54.9987 44.3163L48.6216 40.1419L47.5262 41.8152L53.9033 45.9897L54.9987 44.3163ZM54.0045 47.5906L55.2783 45.7147L53.6237 44.5912L52.3499 46.4671L54.0045 47.5906ZM47.5262 44.5244L52.6295 47.8655L53.725 46.1922L48.6217 42.8511L47.5262 44.5244ZM49.0739 47.3084V43.6877H47.0739V47.3084H49.0739ZM53.2329 48.7514C51.893 47.4649 50.1502 46.5913 48.2135 46.3182L47.9343 48.2987C49.4488 48.5122 50.8063 49.1941 51.8478 50.1941L53.2329 48.7514ZM52.6665 48.4727H52.5404V50.4727H52.6665V48.4727ZM39.8887 16.516C39.8887 16.286 39.945 16.051 40.0515 15.8408L38.2675 14.9366C38.0209 15.4232 37.8887 15.9676 37.8887 16.516H39.8887ZM41.4558 18.0364C40.5752 18.0364 39.8887 17.3363 39.8887 16.516H37.8887C37.8887 18.4753 39.5053 20.0364 41.4558 20.0364V18.0364ZM52.3957 18.0364H41.4558V20.0364H52.3957V18.0364ZM53.9628 16.516C53.9628 17.3363 53.2764 18.0364 52.3957 18.0364V20.0364C54.3462 20.0364 55.9628 18.4753 55.9628 16.516H53.9628ZM53.8012 15.8431C53.9069 16.0502 53.9628 16.2842 53.9628 16.516H55.9628C55.9628 15.9694 55.8326 15.424 55.5828 14.9343L53.8012 15.8431ZM48.331 5.10148L53.8009 15.8425L55.5831 14.9349L50.1132 4.19387L48.331 5.10148ZM47.6308 4.43722C47.9482 4.59414 48.1879 4.82084 48.3312 5.10187L50.113 4.19347C49.7483 3.47823 49.1661 2.96516 48.5171 2.64431L47.6308 4.43722ZM45.7776 4.54077H48.0739V2.54077H45.7776V4.54077ZM45.5204 5.10187C45.6637 4.82084 45.9033 4.59414 46.2208 4.43722L45.3345 2.64431C44.6854 2.96516 44.1032 3.47823 43.7386 4.19347L45.5204 5.10187ZM40.0506 15.8425L45.5206 5.10148L43.7384 4.19387L38.2684 14.9349L40.0506 15.8425ZM51.6665 55.1091V56.1224H53.6665V55.1091H51.6665ZM47.8779 50.5673C50.0493 51.0012 51.6665 52.886 51.6665 55.1091H53.6665C53.6665 51.8874 51.3313 49.2179 48.2699 48.6061L47.8779 50.5673ZM49.0739 50.6V49.5867H47.0739V50.6H49.0739ZM52.8625 55.1418C50.6912 54.7079 49.0739 52.8222 49.0739 50.6H47.0739C47.0739 53.8205 49.409 56.4912 52.4705 57.103L52.8625 55.1418ZM44.7776 50.6C44.7776 52.8231 43.1604 54.7079 40.9891 55.1418L41.381 57.103C44.4425 56.4912 46.7776 53.8217 46.7776 50.6H44.7776ZM44.7776 49.5867V50.6H46.7776V49.5867H44.7776ZM42.185 55.1091C42.185 52.886 43.8022 51.0012 45.9736 50.5673L45.5816 48.6061C42.5202 49.2179 40.185 51.8874 40.185 55.1091H42.185ZM42.185 56.1224V55.1091H40.185V56.1224H42.185ZM15.7776 13.4C15.7776 13.3486 15.8283 13.2727 15.9258 13.2727V11.2727C14.7585 11.2727 13.7776 12.2096 13.7776 13.4H15.7776ZM15.7776 14.5273V13.4H13.7776V14.5273H15.7776ZM23.9628 13.5273H14.7776V15.5273H23.9628V13.5273ZM22.9628 13.4V14.5273H24.9628V13.4H22.9628ZM22.8147 13.2727C22.9121 13.2727 22.9628 13.3486 22.9628 13.4H24.9628C24.9628 12.2096 23.9819 11.2727 22.8147 11.2727V13.2727ZM15.9258 13.2727H22.8147V11.2727H15.9258V13.2727ZM14.8259 23.0781L17.5146 21.7581L16.6332 19.9628L13.9445 21.2827L14.8259 23.0781ZM13.4813 25.205C13.4813 24.3034 13.9871 23.489 14.8252 23.0784L13.9452 21.2824C12.4331 22.0233 11.4813 23.5273 11.4813 25.205H13.4813ZM13.4813 40.0252V25.205H11.4813V40.0252H13.4813ZM14.5532 37.7264C13.5542 38.0768 12.6471 38.5994 11.8492 39.2504L13.1135 40.8C13.7418 40.2874 14.447 39.8831 15.2151 39.6137L14.5532 37.7264ZM15.2481 31.8757L13.9043 38.4704L15.864 38.8697L17.2078 32.2751L15.2481 31.8757ZM20.2037 25.4325C17.6638 26.6408 15.8233 29.0558 15.2481 31.8756L17.2078 32.2753C17.663 30.0432 19.1156 28.1649 21.0629 27.2386L20.2037 25.4325ZM22.4526 24.0489C21.629 24.6113 20.928 25.0874 20.2031 25.4328L21.0635 27.2383C21.9532 26.8143 22.7837 26.2446 23.5804 25.7006L22.4526 24.0489ZM25.1959 22.381C24.1704 22.8785 23.2529 23.5024 22.4526 24.0489L23.5804 25.7006C24.3924 25.1462 25.1949 24.6043 26.0688 24.1804L25.1959 22.381ZM23.9146 23.0781C24.2733 23.2542 24.578 23.5227 24.8166 23.8591L26.4481 22.7023C26.0341 22.1184 25.48 21.6185 24.7959 21.2827L23.9146 23.0781ZM21.2258 21.7581L23.9146 23.0781L24.7959 21.2827L22.1072 19.9628L21.2258 21.7581ZM20.6665 16.7818V20.8605H22.6665V16.7818H20.6665ZM17.0739 17.7818H21.6665V15.7818H17.0739V17.7818ZM18.0739 20.8605V16.7818H16.0739V20.8605H18.0739ZM6.59244 57.3636C6.59244 54.8254 8.70283 52.7273 11.3332 52.7273V50.7273C7.63302 50.7273 4.59244 53.6864 4.59244 57.3636H6.59244ZM6.59244 60.7455V57.3636H4.59244V60.7455H6.59244ZM58.4073 59.7455H5.59244V61.7455H58.4073V59.7455ZM57.4073 57.3636V60.7455H59.4073V57.3636H57.4073ZM54.0215 52.9489C55.9921 53.5307 57.4073 55.2938 57.4073 57.3636H59.4073C59.4073 54.3431 57.3454 51.8449 54.5878 51.0307L54.0215 52.9489ZM55.9628 55.1091C55.9628 53.8572 55.6953 52.6662 55.2198 51.5868L53.3895 52.3929C53.7572 53.2278 53.9628 54.145 53.9628 55.1091H55.9628ZM55.9628 58.4909V55.1091H53.9628V58.4909H55.9628ZM53.8147 59.4909H54.9628V57.4909H53.8147V59.4909ZM46.0727 55.1652C47.6545 57.7514 50.5289 59.4909 53.8147 59.4909V57.4909C51.2498 57.4909 49.0102 56.1348 47.7789 54.1216L46.0727 55.1652ZM40.0369 59.4909C43.3226 59.4909 46.197 57.7514 47.7789 55.1652L46.0727 54.1216C44.8414 56.1348 42.6018 57.4909 40.0369 57.4909V59.4909ZM38.8887 59.4909H40.0369V57.4909H38.8887V59.4909ZM37.8887 55.1091V58.4909H39.8887V55.1091H37.8887ZM45.6376 46.3183C41.2787 46.9346 37.8887 50.6207 37.8887 55.1091H39.8887C39.8887 51.6636 42.4985 48.782 45.9176 48.2986L45.6376 46.3183ZM44.7776 43.6877V47.3084H46.7776V43.6877H44.7776ZM41.2207 47.8645L46.3252 44.5245L45.2301 42.851L40.1257 46.191L41.2207 47.8645ZM38.5722 45.7136L39.8459 47.5895L41.5005 46.466L40.2268 44.5901L38.5722 45.7136ZM45.23 40.1407L38.8518 44.3152L39.9471 45.9886L46.3253 41.8142L45.23 40.1407ZM44.7776 38.0514V40.9774H46.7776V38.0514H44.7776ZM41.2207 42.2282L46.3252 38.8882L45.2301 37.2146L40.1257 40.5546L41.2207 42.2282ZM38.5722 40.0773L39.8459 41.9531L41.5005 40.8296L40.2268 38.9538L38.5722 40.0773ZM45.23 34.5044L38.8518 38.6788L39.9471 40.3522L46.3253 36.1778L45.23 34.5044ZM44.7776 32.415V35.3411H46.7776V32.415H44.7776ZM41.2207 36.5918L46.3252 33.2518L45.2301 31.5782L40.1257 34.9182L41.2207 36.5918ZM38.5722 34.4409L39.8459 36.3168L41.5005 35.1933L40.2268 33.3174L38.5722 34.4409ZM45.23 28.868L38.8518 33.0424L39.9471 34.7159L46.3253 30.5414L45.23 28.868ZM44.7776 26.7787V29.7047H46.7776V26.7787H44.7776ZM41.2208 30.9564L46.3253 27.6154L45.23 25.942L40.1255 29.283L41.2208 30.9564ZM38.5722 28.8056L39.8459 30.6815L41.5005 29.558L40.2268 27.6821L38.5722 28.8056ZM40.1416 26.5637L38.8521 27.407L39.9468 29.0808L41.2362 28.2376L40.1416 26.5637ZM39.1065 27.55C39.4468 27.7834 39.7966 28.0142 40.1453 28.24L41.2325 26.5613C40.8927 26.3413 40.5586 26.1207 40.2374 25.9005L39.1065 27.55ZM34.8725 25.6727C36.3043 25.6727 37.5083 26.4579 39.1077 27.5509L40.2361 25.8996C38.7443 24.8801 37.0275 23.6727 34.8725 23.6727V25.6727ZM33.0637 26.3135C33.2802 26.1919 33.636 26.022 34.0103 25.885C34.4088 25.739 34.7152 25.6727 34.8725 25.6727V23.6727C34.3502 23.6727 33.7715 23.8425 33.3226 24.0069C32.8494 24.1802 32.3958 24.3947 32.0841 24.5698L33.0637 26.3135ZM32.4113 26.6818L33.0655 26.3125L32.0823 24.5708L31.4281 24.9402L32.4113 26.6818ZM30.7237 26.1763L31.3303 26.6189L32.5091 25.0031L31.9025 24.5606L30.7237 26.1763ZM29.1272 25.6727C29.7834 25.6727 30.2471 25.8261 30.7209 26.1743L31.9053 24.5627C31.0684 23.9476 30.1843 23.6727 29.1272 23.6727V25.6727ZM24.8916 27.5501C26.4913 26.458 27.6953 25.6727 29.1272 25.6727V23.6727C26.9724 23.6727 25.2555 24.88 23.764 25.8983L24.8916 27.5501ZM22.064 29.2664C23.1145 28.7668 24.0544 28.1229 24.8925 27.5495L23.7631 25.8989C22.907 26.4846 22.0921 27.0384 21.2051 27.4603L22.064 29.2664ZM20.0817 31.1071C20.5656 30.2944 21.2544 29.6518 22.0643 29.2663L21.2048 27.4604C20.0126 28.0278 19.0351 28.9554 18.3632 30.084L20.0817 31.1071ZM18.8686 31.5308L18.8691 31.531L19.5759 29.66L19.5754 29.6599L18.8686 31.5308ZM20.1621 30.9363L20.1629 30.934L18.2811 30.2567L18.2803 30.2589L20.1621 30.9363ZM20.066 31.1336C20.0709 31.1253 20.0758 31.117 20.0807 31.1088L18.3618 30.0863C18.3549 30.0979 18.3481 30.1094 18.3414 30.1208L20.066 31.1336ZM19.5198 29.6785C19.5176 29.6778 19.5151 29.677 19.5125 29.6761L18.8949 31.5784C18.8964 31.5788 18.898 31.5794 18.8999 31.58L19.5198 29.6785ZM19.3866 33.0907L20.1507 30.9679L18.269 30.2905L17.5048 32.4133L19.3866 33.0907ZM18.1363 33.703C18.1398 33.7041 18.1434 33.7052 18.1469 33.7063L18.7444 31.7977C18.7383 31.7957 18.7322 31.7938 18.7261 31.792L18.1363 33.703ZM18.296 38.4221L19.4111 32.947L17.4513 32.5479L16.3362 38.023L18.296 38.4221ZM17.339 37.2175C17.3157 37.22 17.3034 37.2213 17.2926 37.2223C17.283 37.2232 17.2807 37.2232 17.2826 37.2231L17.3496 39.222C17.4386 39.219 17.5196 39.2097 17.5575 39.2055L17.339 37.2175ZM17.6065 37.2C17.4891 37.2 17.3832 37.2126 17.3391 37.2175L17.5575 39.2055C17.5711 39.204 17.5807 39.2029 17.5898 39.202C17.5984 39.2011 17.6042 39.2006 17.6083 39.2003C17.6167 39.1996 17.6147 39.2 17.6065 39.2V37.2ZM29.7035 37.2H17.6065V39.2H29.7035V37.2ZM30.7035 40.4545V38.2H28.7035V40.4545H30.7035ZM17.6065 41.4545H29.7035V39.4545H17.6065V41.4545ZM13.0643 44.7632C13.6667 42.7916 15.4811 41.4545 17.6065 41.4545V39.4545C14.6225 39.4545 12.0169 41.3463 11.1516 44.1788L13.0643 44.7632ZM11.5249 49.8034L13.0643 44.7631L11.1516 44.1789L9.61211 49.2191L11.5249 49.8034ZM11.3332 48.4727C11.0364 48.4727 10.751 48.4898 10.4753 48.5156L10.6617 50.5069C10.8916 50.4854 11.113 50.4727 11.3332 50.4727V48.4727ZM22.8147 48.4727H11.3332V50.4727H22.8147V48.4727ZM23.8147 51.7273V49.4727H21.8147V51.7273H23.8147ZM11.3332 52.7273H22.8147V50.7273H11.3332V52.7273Z" fill="#322153" mask="url(#path-3-inside-1_101_293)"/>
</svg>
