<svg width="64" height="64" viewBox="0 0 64 64" fill="none" xmlns="http://www.w3.org/2000/svg">
<g clip-path="url(#clip0_101_264)">
<path d="M46 26H18C16.895 26 16 24.9558 16 23.6667V7.33333C16 6.04419 16.895 5 18 5H46C47.105 5 48 6.04419 48 7.33333V23.6667C48 24.9558 47.105 26 46 26Z" fill="#34CB79"/>
<path d="M16.516 0.5H47.4838C50.0534 0.5 52.1451 2.59167 52.1451 5.16129V26.5953C52.1451 28.1856 51.7689 29.7814 51.0572 31.2043L51.057 31.2047C50.4188 32.4838 50.0805 33.9125 50.0805 35.3402V58.8387C50.0805 61.4083 47.9889 63.5 45.4193 63.5H18.5805C16.0109 63.5 13.9193 61.4083 13.9193 58.8387V35.3402C13.9193 33.9136 13.581 32.4838 12.9427 31.2055L12.9427 31.2055C12.2308 29.7804 11.8547 28.1855 11.8547 26.5953V5.16129C11.8547 2.59167 13.9464 0.5 16.516 0.5ZM50.1039 30.7301L50.104 30.7299C50.7423 29.4517 51.0805 28.0229 51.0805 26.5953V5.16129C51.0805 3.17799 49.4671 1.56452 47.4838 1.56452H16.516C14.5327 1.56452 12.9193 3.17799 12.9193 5.16129V26.5953C12.9193 28.0229 13.2575 29.4517 13.8958 30.7299L13.8959 30.7301C14.6076 32.1541 14.9838 33.7499 14.9838 35.3402V58.8387C14.9838 60.822 16.5972 62.4355 18.5805 62.4355H45.4193C47.4025 62.4355 49.016 60.822 49.016 58.8387V35.3402C49.016 33.7499 49.3921 32.1541 50.1039 30.7301Z" fill="#322153" stroke="#322153"/>
<path d="M19.1129 57.8065V58.3065H19.6129H23.7439H24.2444L24.2439 57.806L24.2419 55.7415L24.2414 55.242H23.7419H19.6129H19.1129V55.742V57.8065ZM19.6129 54.1775H23.7419C24.6044 54.1775 25.3064 54.8795 25.3064 55.742V57.8065C25.3064 58.669 24.6044 59.371 23.7419 59.371H19.6129C18.7504 59.371 18.0483 58.669 18.0483 57.8065V55.742C18.0483 54.8795 18.7504 54.1775 19.6129 54.1775Z" fill="#322153" stroke="#322153"/>
<path d="M19.1129 49.5485V50.0485H19.6129H23.7439H24.2444L24.2439 49.548L24.2419 47.4835L24.2414 46.984H23.7419H19.6129H19.1129V47.484V49.5485ZM19.6129 45.9194H23.7419C24.6044 45.9194 25.3064 46.6215 25.3064 47.484V49.5485C25.3064 50.4109 24.6044 51.113 23.7419 51.113H19.6129C18.7504 51.113 18.0483 50.4109 18.0483 49.5485V47.484C18.0483 46.6215 18.7504 45.9194 19.6129 45.9194Z" fill="#322153" stroke="#322153"/>
<path d="M19.1129 41.2904V41.7904H19.6129H23.7439H24.2444L24.2439 41.2899L24.2419 39.2254L24.2414 38.7259H23.7419H19.6129H19.1129V39.2259V41.2904ZM19.6129 37.6614H23.7419C24.6044 37.6614 25.3064 38.3634 25.3064 39.2259V41.2904C25.3064 42.1529 24.6044 42.8549 23.7419 42.8549H19.6129C18.7504 42.8549 18.0483 42.1529 18.0483 41.2904V39.2259C18.0483 38.3634 18.7504 37.6614 19.6129 37.6614Z" fill="#322153" stroke="#322153"/>
<path d="M29.4354 57.8065V58.3065H29.9354H34.0664H34.5669L34.5664 57.806L34.5644 55.7415L34.5639 55.242H34.0644H29.9354H29.4354V55.742V57.8065ZM29.9354 54.1775H34.0644C34.9269 54.1775 35.6289 54.8795 35.6289 55.742V57.8065C35.6289 58.669 34.9269 59.371 34.0644 59.371H29.9354C29.0729 59.371 28.3708 58.669 28.3708 57.8065V55.742C28.3708 54.8795 29.0729 54.1775 29.9354 54.1775Z" fill="#322153" stroke="#322153"/>
<path d="M29.4354 49.5485V50.0485H29.9354H34.0664H34.5669L34.5664 49.548L34.5644 47.4835L34.5639 46.984H34.0644H29.9354H29.4354V47.484V49.5485ZM29.9354 45.9194H34.0644C34.9269 45.9194 35.6289 46.6215 35.6289 47.484V49.5485C35.6289 50.4109 34.9269 51.113 34.0644 51.113H29.9354C29.0729 51.113 28.3708 50.4109 28.3708 49.5485V47.484C28.3708 46.6215 29.0729 45.9194 29.9354 45.9194Z" fill="#322153" stroke="#322153"/>
<path d="M29.4354 41.2904V41.7904H29.9354H34.0664H34.5669L34.5664 41.2899L34.5644 39.2254L34.5639 38.7259H34.0644H29.9354H29.4354V39.2259V41.2904ZM29.9354 37.6614H34.0644C34.9269 37.6614 35.6289 38.3634 35.6289 39.2259V41.2904C35.6289 42.1529 34.9269 42.8549 34.0644 42.8549H29.9354C29.0729 42.8549 28.3708 42.1529 28.3708 41.2904V39.2259C28.3708 38.3634 29.0729 37.6614 29.9354 37.6614Z" fill="#322153" stroke="#322153"/>
<path d="M28.9032 29.4033H35.0967C36.5277 29.4033 37.6935 30.5691 37.6935 32.0001C37.6935 33.4311 36.5277 34.5969 35.0967 34.5969H28.9032C27.4722 34.5969 26.3064 33.4311 26.3064 32.0001C26.3064 30.5691 27.4722 29.4033 28.9032 29.4033ZM28.9032 33.5324H35.0967C35.9427 33.5324 36.629 32.8445 36.629 32.0001C36.629 31.1557 35.9427 30.4678 35.0967 30.4678H28.9032C28.0572 30.4678 27.3709 31.1557 27.3709 32.0001C27.3709 32.8445 28.0572 33.5324 28.9032 33.5324Z" fill="#322153" stroke="#322153"/>
<path d="M39.7581 57.8065V58.3065H40.2581H44.3892H44.8897L44.8892 57.806L44.8872 55.7415L44.8867 55.242H44.3872H40.2581H39.7581V55.742V57.8065ZM40.2581 54.1775H44.3872C45.2496 54.1775 45.9517 54.8795 45.9517 55.742V57.8065C45.9517 58.669 45.2496 59.371 44.3872 59.371H40.2581C39.3957 59.371 38.6936 58.669 38.6936 57.8065V55.742C38.6936 54.8795 39.3957 54.1775 40.2581 54.1775Z" fill="#322153" stroke="#322153"/>
<path d="M39.7581 49.5485V50.0485H40.2581H44.3892H44.8897L44.8892 49.548L44.8872 47.4835L44.8867 46.984H44.3872H40.2581H39.7581V47.484V49.5485ZM40.2581 45.9194H44.3872C45.2496 45.9194 45.9517 46.6215 45.9517 47.484V49.5485C45.9517 50.4109 45.2496 51.113 44.3872 51.113H40.2581C39.3957 51.113 38.6936 50.4109 38.6936 49.5485V47.484C38.6936 46.6215 39.3957 45.9194 40.2581 45.9194Z" fill="#322153" stroke="#322153"/>
<path d="M39.7581 41.2904V41.7904H40.2581H44.3892H44.8897L44.8892 41.2899L44.8872 39.2254L44.8867 38.7259H44.3872H40.2581H39.7581V39.2259V41.2904ZM40.2581 37.6614H44.3872C45.2496 37.6614 45.9517 38.3634 45.9517 39.2259V41.2904C45.9517 42.1529 45.2496 42.8549 44.3872 42.8549H40.2581C39.3957 42.8549 38.6936 42.1529 38.6936 41.2904V39.2259C38.6936 38.3634 39.3957 37.6614 40.2581 37.6614Z" fill="#322153" stroke="#322153"/>
<path d="M42.3226 30.4678H41.8226V30.9678V33.0324V33.5324H42.3226H44.3871H44.8871V33.0324V30.9678V30.4678H44.3871H42.3226ZM45.9516 29.4033V34.5969H40.7581V29.4033H45.9516Z" fill="#322153" stroke="#322153"/>
<path d="M21.6774 33.5324H22.1774V33.0324V30.9678V30.4678H21.6774H19.6129H19.1129V30.9678V33.0324V33.5324H19.6129H21.6774ZM18.0483 29.4033H23.2419V34.5969H18.0483V29.4033Z" fill="#322153" stroke="#322153"/>
</g>
<defs>
<clipPath id="clip0_101_264">
<rect width="64" height="64" fill="white"/>
</clipPath>
</defs>
</svg>
